<svg width="275" height="120" viewBox="0 0 275 120" fill="none" xmlns="http://www.w3.org/2000/svg">
<path d="M118.403 110.798C118.403 111.17 118.379 111.506 118.331 111.806H110.753C110.813 112.598 111.107 113.234 111.635 113.714C112.163 114.194 112.811 114.434 113.579 114.434C114.683 114.434 115.463 113.972 115.919 113.048H118.133C117.833 113.96 117.287 114.71 116.495 115.298C115.715 115.874 114.743 116.162 113.579 116.162C112.631 116.162 111.779 115.952 111.023 115.532C110.279 115.1 109.691 114.5 109.259 113.732C108.839 112.952 108.629 112.052 108.629 111.032C108.629 110.012 108.833 109.118 109.241 108.35C109.661 107.57 110.243 106.97 110.987 106.55C111.743 106.13 112.607 105.92 113.579 105.92C114.515 105.92 115.349 106.124 116.081 106.532C116.813 106.94 117.383 107.516 117.791 108.26C118.199 108.992 118.403 109.838 118.403 110.798ZM116.261 110.15C116.249 109.394 115.979 108.788 115.451 108.332C114.923 107.876 114.269 107.648 113.489 107.648C112.781 107.648 112.175 107.876 111.671 108.332C111.167 108.776 110.867 109.382 110.771 110.15H116.261ZM137.104 105.92C137.884 105.92 138.58 106.082 139.192 106.406C139.816 106.73 140.302 107.21 140.65 107.846C141.01 108.482 141.19 109.25 141.19 110.15V116H139.156V110.456C139.156 109.568 138.934 108.89 138.49 108.422C138.046 107.942 137.44 107.702 136.672 107.702C135.904 107.702 135.292 107.942 134.836 108.422C134.392 108.89 134.17 109.568 134.17 110.456V116H132.136V110.456C132.136 109.568 131.914 108.89 131.47 108.422C131.026 107.942 130.42 107.702 129.652 107.702C128.884 107.702 128.272 107.942 127.816 108.422C127.372 108.89 127.15 109.568 127.15 110.456V116H125.098V106.082H127.15V107.216C127.486 106.808 127.912 106.49 128.428 106.262C128.944 106.034 129.496 105.92 130.084 105.92C130.876 105.92 131.584 106.088 132.208 106.424C132.832 106.76 133.312 107.246 133.648 107.882C133.948 107.282 134.416 106.808 135.052 106.46C135.688 106.1 136.372 105.92 137.104 105.92ZM143.117 110.996C143.117 110 143.321 109.118 143.729 108.35C144.149 107.582 144.713 106.988 145.421 106.568C146.141 106.136 146.933 105.92 147.797 105.92C148.577 105.92 149.255 106.076 149.831 106.388C150.419 106.688 150.887 107.066 151.235 107.522V106.082H153.305V116H151.235V114.524C150.887 114.992 150.413 115.382 149.813 115.694C149.213 116.006 148.529 116.162 147.761 116.162C146.909 116.162 146.129 115.946 145.421 115.514C144.713 115.07 144.149 114.458 143.729 113.678C143.321 112.886 143.117 111.992 143.117 110.996ZM151.235 111.032C151.235 110.348 151.091 109.754 150.803 109.25C150.527 108.746 150.161 108.362 149.705 108.098C149.249 107.834 148.757 107.702 148.229 107.702C147.701 107.702 147.209 107.834 146.753 108.098C146.297 108.35 145.925 108.728 145.637 109.232C145.361 109.724 145.223 110.312 145.223 110.996C145.223 111.68 145.361 112.28 145.637 112.796C145.925 113.312 146.297 113.708 146.753 113.984C147.221 114.248 147.713 114.38 148.229 114.38C148.757 114.38 149.249 114.248 149.705 113.984C150.161 113.72 150.527 113.336 150.803 112.832C151.091 112.316 151.235 111.716 151.235 111.032ZM157.044 104.768C156.672 104.768 156.36 104.642 156.108 104.39C155.856 104.138 155.73 103.826 155.73 103.454C155.73 103.082 155.856 102.77 156.108 102.518C156.36 102.266 156.672 102.14 157.044 102.14C157.404 102.14 157.71 102.266 157.962 102.518C158.214 102.77 158.34 103.082 158.34 103.454C158.34 103.826 158.214 104.138 157.962 104.39C157.71 104.642 157.404 104.768 157.044 104.768ZM158.052 106.082V116H156V106.082H158.052ZM164.346 116.162C163.566 116.162 162.864 116.024 162.24 115.748C161.628 115.46 161.142 115.076 160.782 114.596C160.422 114.104 160.23 113.558 160.206 112.958H162.33C162.366 113.378 162.564 113.732 162.924 114.02C163.296 114.296 163.758 114.434 164.31 114.434C164.886 114.434 165.33 114.326 165.642 114.11C165.966 113.882 166.128 113.594 166.128 113.246C166.128 112.874 165.948 112.598 165.588 112.418C165.24 112.238 164.682 112.04 163.914 111.824C163.17 111.62 162.564 111.422 162.096 111.23C161.628 111.038 161.22 110.744 160.872 110.348C160.536 109.952 160.368 109.43 160.368 108.782C160.368 108.254 160.524 107.774 160.836 107.342C161.148 106.898 161.592 106.55 162.168 106.298C162.756 106.046 163.428 105.92 164.184 105.92C165.312 105.92 166.218 106.208 166.902 106.784C167.598 107.348 167.97 108.122 168.018 109.106H165.966C165.93 108.662 165.75 108.308 165.426 108.044C165.102 107.78 164.664 107.648 164.112 107.648C163.572 107.648 163.158 107.75 162.87 107.954C162.582 108.158 162.438 108.428 162.438 108.764C162.438 109.028 162.534 109.25 162.726 109.43C162.918 109.61 163.152 109.754 163.428 109.862C163.704 109.958 164.112 110.084 164.652 110.24C165.372 110.432 165.96 110.63 166.416 110.834C166.884 111.026 167.286 111.314 167.622 111.698C167.958 112.082 168.132 112.592 168.144 113.228C168.144 113.792 167.988 114.296 167.676 114.74C167.364 115.184 166.92 115.532 166.344 115.784C165.78 116.036 165.114 116.162 164.346 116.162ZM171.19 116.126C170.818 116.126 170.506 116 170.254 115.748C170.002 115.496 169.876 115.184 169.876 114.812C169.876 114.44 170.002 114.128 170.254 113.876C170.506 113.624 170.818 113.498 171.19 113.498C171.55 113.498 171.856 113.624 172.108 113.876C172.36 114.128 172.486 114.44 172.486 114.812C172.486 115.184 172.36 115.496 172.108 115.748C171.856 116 171.55 116.126 171.19 116.126ZM175.532 116.126C175.16 116.126 174.848 116 174.596 115.748C174.344 115.496 174.218 115.184 174.218 114.812C174.218 114.44 174.344 114.128 174.596 113.876C174.848 113.624 175.16 113.498 175.532 113.498C175.892 113.498 176.198 113.624 176.45 113.876C176.702 114.128 176.828 114.44 176.828 114.812C176.828 115.184 176.702 115.496 176.45 115.748C176.198 116 175.892 116.126 175.532 116.126ZM179.873 116.126C179.501 116.126 179.189 116 178.937 115.748C178.685 115.496 178.559 115.184 178.559 114.812C178.559 114.44 178.685 114.128 178.937 113.876C179.189 113.624 179.501 113.498 179.873 113.498C180.233 113.498 180.539 113.624 180.791 113.876C181.043 114.128 181.169 114.44 181.169 114.812C181.169 115.184 181.043 115.496 180.791 115.748C180.539 116 180.233 116.126 179.873 116.126Z" fill="#47585B"/>
<circle cx="93" cy="112" r="4" fill="#FFBA08"/>
<path d="M200.173 63.032C200.173 62.012 200.377 61.118 200.785 60.35C201.205 59.57 201.781 58.97 202.513 58.55C203.245 58.13 204.085 57.92 205.033 57.92C206.233 57.92 207.223 58.208 208.003 58.784C208.795 59.348 209.329 60.158 209.605 61.214H207.391C207.211 60.722 206.923 60.338 206.527 60.062C206.131 59.786 205.633 59.648 205.033 59.648C204.193 59.648 203.521 59.948 203.017 60.548C202.525 61.136 202.279 61.964 202.279 63.032C202.279 64.1 202.525 64.934 203.017 65.534C203.521 66.134 204.193 66.434 205.033 66.434C206.221 66.434 207.007 65.912 207.391 64.868H209.605C209.317 65.876 208.777 66.68 207.985 67.28C207.193 67.868 206.209 68.162 205.033 68.162C204.085 68.162 203.245 67.952 202.513 67.532C201.781 67.1 201.205 66.5 200.785 65.732C200.377 64.952 200.173 64.052 200.173 63.032ZM213.702 54.68V68H211.65V54.68H213.702ZM215.712 62.996C215.712 62 215.916 61.118 216.324 60.35C216.744 59.582 217.308 58.988 218.016 58.568C218.736 58.136 219.528 57.92 220.392 57.92C221.172 57.92 221.85 58.076 222.426 58.388C223.014 58.688 223.482 59.066 223.83 59.522V58.082H225.9V68H223.83V66.524C223.482 66.992 223.008 67.382 222.408 67.694C221.808 68.006 221.124 68.162 220.356 68.162C219.504 68.162 218.724 67.946 218.016 67.514C217.308 67.07 216.744 66.458 216.324 65.678C215.916 64.886 215.712 63.992 215.712 62.996ZM223.83 63.032C223.83 62.348 223.686 61.754 223.398 61.25C223.122 60.746 222.756 60.362 222.3 60.098C221.844 59.834 221.352 59.702 220.824 59.702C220.296 59.702 219.804 59.834 219.348 60.098C218.892 60.35 218.52 60.728 218.232 61.232C217.956 61.724 217.818 62.312 217.818 62.996C217.818 63.68 217.956 64.28 218.232 64.796C218.52 65.312 218.892 65.708 219.348 65.984C219.816 66.248 220.308 66.38 220.824 66.38C221.352 66.38 221.844 66.248 222.3 65.984C222.756 65.72 223.122 65.336 223.398 64.832C223.686 64.316 223.83 63.716 223.83 63.032ZM223.002 55.418L219.024 57.38V55.868L223.002 53.672V55.418ZM232.195 68.162C231.415 68.162 230.713 68.024 230.089 67.748C229.477 67.46 228.991 67.076 228.631 66.596C228.271 66.104 228.079 65.558 228.055 64.958H230.179C230.215 65.378 230.413 65.732 230.773 66.02C231.145 66.296 231.607 66.434 232.159 66.434C232.735 66.434 233.179 66.326 233.491 66.11C233.815 65.882 233.977 65.594 233.977 65.246C233.977 64.874 233.797 64.598 233.437 64.418C233.089 64.238 232.531 64.04 231.763 63.824C231.019 63.62 230.413 63.422 229.945 63.23C229.477 63.038 229.069 62.744 228.721 62.348C228.385 61.952 228.217 61.43 228.217 60.782C228.217 60.254 228.373 59.774 228.685 59.342C228.997 58.898 229.441 58.55 230.017 58.298C230.605 58.046 231.277 57.92 232.033 57.92C233.161 57.92 234.067 58.208 234.751 58.784C235.447 59.348 235.819 60.122 235.867 61.106H233.815C233.779 60.662 233.599 60.308 233.275 60.044C232.951 59.78 232.513 59.648 231.961 59.648C231.421 59.648 231.007 59.75 230.719 59.954C230.431 60.158 230.287 60.428 230.287 60.764C230.287 61.028 230.383 61.25 230.575 61.43C230.767 61.61 231.001 61.754 231.277 61.862C231.553 61.958 231.961 62.084 232.501 62.24C233.221 62.432 233.809 62.63 234.265 62.834C234.733 63.026 235.135 63.314 235.471 63.698C235.807 64.082 235.981 64.592 235.993 65.228C235.993 65.792 235.837 66.296 235.525 66.74C235.213 67.184 234.769 67.532 234.193 67.784C233.629 68.036 232.963 68.162 232.195 68.162ZM241.81 68.162C241.03 68.162 240.328 68.024 239.704 67.748C239.092 67.46 238.606 67.076 238.246 66.596C237.886 66.104 237.694 65.558 237.67 64.958H239.794C239.83 65.378 240.028 65.732 240.388 66.02C240.76 66.296 241.222 66.434 241.774 66.434C242.35 66.434 242.794 66.326 243.106 66.11C243.43 65.882 243.592 65.594 243.592 65.246C243.592 64.874 243.412 64.598 243.052 64.418C242.704 64.238 242.146 64.04 241.378 63.824C240.634 63.62 240.028 63.422 239.56 63.23C239.092 63.038 238.684 62.744 238.336 62.348C238 61.952 237.832 61.43 237.832 60.782C237.832 60.254 237.988 59.774 238.3 59.342C238.612 58.898 239.056 58.55 239.632 58.298C240.22 58.046 240.892 57.92 241.648 57.92C242.776 57.92 243.682 58.208 244.366 58.784C245.062 59.348 245.434 60.122 245.482 61.106H243.43C243.394 60.662 243.214 60.308 242.89 60.044C242.566 59.78 242.128 59.648 241.576 59.648C241.036 59.648 240.622 59.75 240.334 59.954C240.046 60.158 239.902 60.428 239.902 60.764C239.902 61.028 239.998 61.25 240.19 61.43C240.382 61.61 240.616 61.754 240.892 61.862C241.168 61.958 241.576 62.084 242.116 62.24C242.836 62.432 243.424 62.63 243.88 62.834C244.348 63.026 244.75 63.314 245.086 63.698C245.422 64.082 245.596 64.592 245.608 65.228C245.608 65.792 245.452 66.296 245.14 66.74C244.828 67.184 244.384 67.532 243.808 67.784C243.244 68.036 242.578 68.162 241.81 68.162ZM248.87 56.768C248.498 56.768 248.186 56.642 247.934 56.39C247.682 56.138 247.556 55.826 247.556 55.454C247.556 55.082 247.682 54.77 247.934 54.518C248.186 54.266 248.498 54.14 248.87 54.14C249.23 54.14 249.536 54.266 249.788 54.518C250.04 54.77 250.166 55.082 250.166 55.454C250.166 55.826 250.04 56.138 249.788 56.39C249.536 56.642 249.23 56.768 248.87 56.768ZM249.878 58.082V68H247.826V58.082H249.878ZM251.888 63.032C251.888 62.012 252.092 61.118 252.5 60.35C252.92 59.57 253.496 58.97 254.228 58.55C254.96 58.13 255.8 57.92 256.748 57.92C257.948 57.92 258.938 58.208 259.718 58.784C260.51 59.348 261.044 60.158 261.32 61.214H259.106C258.926 60.722 258.638 60.338 258.242 60.062C257.846 59.786 257.348 59.648 256.748 59.648C255.908 59.648 255.236 59.948 254.732 60.548C254.24 61.136 253.994 61.964 253.994 63.032C253.994 64.1 254.24 64.934 254.732 65.534C255.236 66.134 255.908 66.434 256.748 66.434C257.936 66.434 258.722 65.912 259.106 64.868H261.32C261.032 65.876 260.492 66.68 259.7 67.28C258.908 67.868 257.924 68.162 256.748 68.162C255.8 68.162 254.96 67.952 254.228 67.532C253.496 67.1 252.92 66.5 252.5 65.732C252.092 64.952 251.888 64.052 251.888 63.032ZM267.667 68.162C266.731 68.162 265.885 67.952 265.129 67.532C264.373 67.1 263.779 66.5 263.347 65.732C262.915 64.952 262.699 64.052 262.699 63.032C262.699 62.024 262.921 61.13 263.365 60.35C263.809 59.57 264.415 58.97 265.183 58.55C265.951 58.13 266.809 57.92 267.757 57.92C268.705 57.92 269.563 58.13 270.331 58.55C271.099 58.97 271.705 59.57 272.149 60.35C272.593 61.13 272.815 62.024 272.815 63.032C272.815 64.04 272.587 64.934 272.131 65.714C271.675 66.494 271.051 67.1 270.259 67.532C269.479 67.952 268.615 68.162 267.667 68.162ZM267.667 66.38C268.195 66.38 268.687 66.254 269.143 66.002C269.611 65.75 269.989 65.372 270.277 64.868C270.565 64.364 270.709 63.752 270.709 63.032C270.709 62.312 270.571 61.706 270.295 61.214C270.019 60.71 269.653 60.332 269.197 60.08C268.741 59.828 268.249 59.702 267.721 59.702C267.193 59.702 266.701 59.828 266.245 60.08C265.801 60.332 265.447 60.71 265.183 61.214C264.919 61.706 264.787 62.312 264.787 63.032C264.787 64.1 265.057 64.928 265.597 65.516C266.149 66.092 266.839 66.38 267.667 66.38Z" fill="#47585B"/>
<circle cx="186" cy="63" r="4" fill="#FFBA08"/>
<path d="M31.0728 57.92C31.8528 57.92 32.5488 58.082 33.1608 58.406C33.7848 58.73 34.2708 59.21 34.6188 59.846C34.9788 60.482 35.1588 61.25 35.1588 62.15V68H33.1248V62.456C33.1248 61.568 32.9028 60.89 32.4588 60.422C32.0148 59.942 31.4088 59.702 30.6408 59.702C29.8728 59.702 29.2608 59.942 28.8048 60.422C28.3608 60.89 28.1388 61.568 28.1388 62.456V68H26.1048V62.456C26.1048 61.568 25.8828 60.89 25.4388 60.422C24.9948 59.942 24.3888 59.702 23.6208 59.702C22.8528 59.702 22.2408 59.942 21.7848 60.422C21.3408 60.89 21.1188 61.568 21.1188 62.456V68H19.0668V58.082H21.1188V59.216C21.4548 58.808 21.8808 58.49 22.3968 58.262C22.9128 58.034 23.4648 57.92 24.0528 57.92C24.8448 57.92 25.5528 58.088 26.1768 58.424C26.8008 58.76 27.2808 59.246 27.6168 59.882C27.9168 59.282 28.3848 58.808 29.0208 58.46C29.6568 58.1 30.3408 57.92 31.0728 57.92ZM42.0719 68.162C41.1359 68.162 40.2899 67.952 39.5339 67.532C38.7779 67.1 38.1839 66.5 37.7519 65.732C37.3199 64.952 37.1039 64.052 37.1039 63.032C37.1039 62.024 37.3259 61.13 37.7699 60.35C38.2139 59.57 38.8199 58.97 39.5879 58.55C40.3559 58.13 41.2139 57.92 42.1619 57.92C43.1099 57.92 43.9679 58.13 44.7359 58.55C45.5039 58.97 46.1099 59.57 46.5539 60.35C46.9979 61.13 47.2199 62.024 47.2199 63.032C47.2199 64.04 46.9919 64.934 46.5359 65.714C46.0799 66.494 45.4559 67.1 44.6639 67.532C43.8839 67.952 43.0199 68.162 42.0719 68.162ZM42.0719 66.38C42.5999 66.38 43.0919 66.254 43.5479 66.002C44.0159 65.75 44.3939 65.372 44.6819 64.868C44.9699 64.364 45.1139 63.752 45.1139 63.032C45.1139 62.312 44.9759 61.706 44.6999 61.214C44.4239 60.71 44.0579 60.332 43.6019 60.08C43.1459 59.828 42.6539 59.702 42.1259 59.702C41.5979 59.702 41.1059 59.828 40.6499 60.08C40.2059 60.332 39.8519 60.71 39.5879 61.214C39.3239 61.706 39.1919 62.312 39.1919 63.032C39.1919 64.1 39.4619 64.928 40.0019 65.516C40.5539 66.092 41.2439 66.38 42.0719 66.38ZM48.5644 62.996C48.5644 62 48.7684 61.118 49.1764 60.35C49.5964 59.582 50.1604 58.988 50.8684 58.568C51.5884 58.136 52.3864 57.92 53.2624 57.92C53.9104 57.92 54.5464 58.064 55.1704 58.352C55.8064 58.628 56.3104 59 56.6824 59.468V54.68H58.7524V68H56.6824V66.506C56.3464 66.986 55.8784 67.382 55.2784 67.694C54.6904 68.006 54.0124 68.162 53.2444 68.162C52.3804 68.162 51.5884 67.946 50.8684 67.514C50.1604 67.07 49.5964 66.458 49.1764 65.678C48.7684 64.886 48.5644 63.992 48.5644 62.996ZM56.6824 63.032C56.6824 62.348 56.5384 61.754 56.2504 61.25C55.9744 60.746 55.6084 60.362 55.1524 60.098C54.6964 59.834 54.2044 59.702 53.6764 59.702C53.1484 59.702 52.6564 59.834 52.2004 60.098C51.7444 60.35 51.3724 60.728 51.0844 61.232C50.8084 61.724 50.6704 62.312 50.6704 62.996C50.6704 63.68 50.8084 64.28 51.0844 64.796C51.3724 65.312 51.7444 65.708 52.2004 65.984C52.6684 66.248 53.1604 66.38 53.6764 66.38C54.2044 66.38 54.6964 66.248 55.1524 65.984C55.6084 65.72 55.9744 65.336 56.2504 64.832C56.5384 64.316 56.6824 63.716 56.6824 63.032ZM70.5377 62.798C70.5377 63.17 70.5137 63.506 70.4657 63.806H62.8877C62.9477 64.598 63.2417 65.234 63.7697 65.714C64.2977 66.194 64.9457 66.434 65.7137 66.434C66.8177 66.434 67.5977 65.972 68.0537 65.048H70.2677C69.9677 65.96 69.4217 66.71 68.6297 67.298C67.8497 67.874 66.8777 68.162 65.7137 68.162C64.7657 68.162 63.9137 67.952 63.1577 67.532C62.4137 67.1 61.8257 66.5 61.3937 65.732C60.9737 64.952 60.7637 64.052 60.7637 63.032C60.7637 62.012 60.9677 61.118 61.3757 60.35C61.7957 59.57 62.3777 58.97 63.1217 58.55C63.8777 58.13 64.7417 57.92 65.7137 57.92C66.6497 57.92 67.4837 58.124 68.2157 58.532C68.9477 58.94 69.5177 59.516 69.9257 60.26C70.3337 60.992 70.5377 61.838 70.5377 62.798ZM68.3957 62.15C68.3837 61.394 68.1137 60.788 67.5857 60.332C67.0577 59.876 66.4037 59.648 65.6237 59.648C64.9157 59.648 64.3097 59.876 63.8057 60.332C63.3017 60.776 63.0017 61.382 62.9057 62.15H68.3957ZM74.609 59.522C74.909 59.018 75.305 58.628 75.797 58.352C76.301 58.064 76.895 57.92 77.579 57.92V60.044H77.057C76.253 60.044 75.641 60.248 75.221 60.656C74.813 61.064 74.609 61.772 74.609 62.78V68H72.557V58.082H74.609V59.522ZM84.4692 57.92C85.2492 57.92 85.9452 58.082 86.5572 58.406C87.1812 58.73 87.6672 59.21 88.0152 59.846C88.3632 60.482 88.5372 61.25 88.5372 62.15V68H86.5032V62.456C86.5032 61.568 86.2812 60.89 85.8372 60.422C85.3932 59.942 84.7872 59.702 84.0192 59.702C83.2512 59.702 82.6392 59.942 82.1832 60.422C81.7392 60.89 81.5172 61.568 81.5172 62.456V68H79.4652V58.082H81.5172V59.216C81.8532 58.808 82.2792 58.49 82.7952 58.262C83.3232 58.034 83.8812 57.92 84.4692 57.92ZM95.4567 68.162C94.5207 68.162 93.6747 67.952 92.9187 67.532C92.1627 67.1 91.5687 66.5 91.1367 65.732C90.7047 64.952 90.4887 64.052 90.4887 63.032C90.4887 62.024 90.7107 61.13 91.1547 60.35C91.5987 59.57 92.2047 58.97 92.9727 58.55C93.7407 58.13 94.5987 57.92 95.5467 57.92C96.4947 57.92 97.3527 58.13 98.1207 58.55C98.8887 58.97 99.4947 59.57 99.9387 60.35C100.383 61.13 100.605 62.024 100.605 63.032C100.605 64.04 100.377 64.934 99.9207 65.714C99.4647 66.494 98.8407 67.1 98.0487 67.532C97.2687 67.952 96.4047 68.162 95.4567 68.162ZM95.4567 66.38C95.9847 66.38 96.4767 66.254 96.9327 66.002C97.4007 65.75 97.7787 65.372 98.0667 64.868C98.3547 64.364 98.4987 63.752 98.4987 63.032C98.4987 62.312 98.3607 61.706 98.0847 61.214C97.8087 60.71 97.4427 60.332 96.9867 60.08C96.5307 59.828 96.0387 59.702 95.5107 59.702C94.9827 59.702 94.4907 59.828 94.0347 60.08C93.5907 60.332 93.2367 60.71 92.9727 61.214C92.7087 61.706 92.5767 62.312 92.5767 63.032C92.5767 64.1 92.8467 64.928 93.3867 65.516C93.9387 66.092 94.6287 66.38 95.4567 66.38Z" fill="#47585B"/>
<circle cx="4" cy="63" r="4" fill="#FFBA08"/>
<path d="M228.276 11.5399C228.624 11.0839 229.098 10.6999 229.698 10.3879C230.298 10.0759 230.976 9.91994 231.732 9.91994C232.596 9.91994 233.382 10.1359 234.09 10.5679C234.81 10.9879 235.374 11.5819 235.782 12.3499C236.19 13.1179 236.394 13.9999 236.394 14.9959C236.394 15.9919 236.19 16.8859 235.782 17.6779C235.374 18.4579 234.81 19.0699 234.09 19.5139C233.382 19.9459 232.596 20.1619 231.732 20.1619C230.976 20.1619 230.304 20.0119 229.716 19.7119C229.128 19.3999 228.648 19.0159 228.276 18.5599V24.7159H226.224V10.0819H228.276V11.5399ZM234.306 14.9959C234.306 14.3119 234.162 13.7239 233.874 13.2319C233.598 12.7279 233.226 12.3499 232.758 12.0979C232.302 11.8339 231.81 11.7019 231.282 11.7019C230.766 11.7019 230.274 11.8339 229.806 12.0979C229.35 12.3619 228.978 12.7459 228.69 13.2499C228.414 13.7539 228.276 14.3479 228.276 15.0319C228.276 15.7159 228.414 16.3159 228.69 16.8319C228.978 17.3359 229.35 17.7199 229.806 17.9839C230.274 18.2479 230.766 18.3799 231.282 18.3799C231.81 18.3799 232.302 18.2479 232.758 17.9839C233.226 17.7079 233.598 17.3119 233.874 16.7959C234.162 16.2799 234.306 15.6799 234.306 14.9959ZM240.475 11.5219C240.775 11.0179 241.171 10.6279 241.663 10.3519C242.167 10.0639 242.761 9.91994 243.445 9.91994V12.0439H242.923C242.119 12.0439 241.507 12.2479 241.087 12.6559C240.679 13.0639 240.475 13.7719 240.475 14.7799V19.9999H238.423V10.0819H240.475V11.5219ZM244.647 14.9959C244.647 13.9999 244.851 13.1179 245.259 12.3499C245.679 11.5819 246.243 10.9879 246.951 10.5679C247.671 10.1359 248.463 9.91994 249.327 9.91994C250.107 9.91994 250.785 10.0759 251.361 10.3879C251.949 10.6879 252.417 11.0659 252.765 11.5219V10.0819H254.835V19.9999H252.765V18.5239C252.417 18.9919 251.943 19.3819 251.343 19.6939C250.743 20.0059 250.059 20.1619 249.291 20.1619C248.439 20.1619 247.659 19.9459 246.951 19.5139C246.243 19.0699 245.679 18.4579 245.259 17.6779C244.851 16.8859 244.647 15.9919 244.647 14.9959ZM252.765 15.0319C252.765 14.3479 252.621 13.7539 252.333 13.2499C252.057 12.7459 251.691 12.3619 251.235 12.0979C250.779 11.8339 250.287 11.7019 249.759 11.7019C249.231 11.7019 248.739 11.8339 248.283 12.0979C247.827 12.3499 247.455 12.7279 247.167 13.2319C246.891 13.7239 246.753 14.3119 246.753 14.9959C246.753 15.6799 246.891 16.2799 247.167 16.7959C247.455 17.3119 247.827 17.7079 248.283 17.9839C248.751 18.2479 249.243 18.3799 249.759 18.3799C250.287 18.3799 250.779 18.2479 251.235 17.9839C251.691 17.7199 252.057 17.3359 252.333 16.8319C252.621 16.3159 252.765 15.7159 252.765 15.0319ZM258.575 8.76794C258.203 8.76794 257.891 8.64194 257.639 8.38994C257.387 8.13794 257.261 7.82594 257.261 7.45394C257.261 7.08194 257.387 6.76994 257.639 6.51794C257.891 6.26594 258.203 6.13994 258.575 6.13994C258.935 6.13994 259.241 6.26594 259.493 6.51794C259.745 6.76994 259.871 7.08194 259.871 7.45394C259.871 7.82594 259.745 8.13794 259.493 8.38994C259.241 8.64194 258.935 8.76794 258.575 8.76794ZM259.583 10.0819V19.9999H257.531V10.0819H259.583ZM261.593 14.9959C261.593 13.9999 261.797 13.1179 262.205 12.3499C262.625 11.5819 263.189 10.9879 263.897 10.5679C264.617 10.1359 265.409 9.91994 266.273 9.91994C267.053 9.91994 267.731 10.0759 268.307 10.3879C268.895 10.6879 269.363 11.0659 269.711 11.5219V10.0819H271.781V19.9999H269.711V18.5239C269.363 18.9919 268.889 19.3819 268.289 19.6939C267.689 20.0059 267.005 20.1619 266.237 20.1619C265.385 20.1619 264.605 19.9459 263.897 19.5139C263.189 19.0699 262.625 18.4579 262.205 17.6779C261.797 16.8859 261.593 15.9919 261.593 14.9959ZM269.711 15.0319C269.711 14.3479 269.567 13.7539 269.279 13.2499C269.003 12.7459 268.637 12.3619 268.181 12.0979C267.725 11.8339 267.233 11.7019 266.705 11.7019C266.177 11.7019 265.685 11.8339 265.229 12.0979C264.773 12.3499 264.401 12.7279 264.113 13.2319C263.837 13.7239 263.699 14.3119 263.699 14.9959C263.699 15.6799 263.837 16.2799 264.113 16.7959C264.401 17.3119 264.773 17.7079 265.229 17.9839C265.697 18.2479 266.189 18.3799 266.705 18.3799C267.233 18.3799 267.725 18.2479 268.181 17.9839C268.637 17.7199 269.003 17.3359 269.279 16.8319C269.567 16.3159 269.711 15.7159 269.711 15.0319Z" fill="#47585B"/>
<circle cx="211" cy="14.9999" r="4" fill="#FFBA08"/>
<path d="M22.9125 18.1639L25.7205 10.0819H27.8985L24.1185 19.9999H21.6705L17.9085 10.0819H20.1045L22.9125 18.1639ZM30.4936 8.76794C30.1216 8.76794 29.8096 8.64194 29.5576 8.38994C29.3056 8.13794 29.1796 7.82594 29.1796 7.45394C29.1796 7.08194 29.3056 6.76994 29.5576 6.51794C29.8096 6.26594 30.1216 6.13994 30.4936 6.13994C30.8536 6.13994 31.1596 6.26594 31.4116 6.51794C31.6636 6.76994 31.7896 7.08194 31.7896 7.45394C31.7896 7.82594 31.6636 8.13794 31.4116 8.38994C31.1596 8.64194 30.8536 8.76794 30.4936 8.76794ZM31.5016 10.0819V19.9999H29.4496V10.0819H31.5016ZM33.5117 14.9959C33.5117 13.9999 33.7157 13.1179 34.1237 12.3499C34.5437 11.5819 35.1077 10.9879 35.8157 10.5679C36.5357 10.1359 37.3337 9.91994 38.2097 9.91994C38.8577 9.91994 39.4937 10.0639 40.1177 10.3519C40.7537 10.6279 41.2577 10.9999 41.6297 11.4679V6.67994H43.6997V19.9999H41.6297V18.5059C41.2937 18.9859 40.8257 19.3819 40.2257 19.6939C39.6377 20.0059 38.9597 20.1619 38.1917 20.1619C37.3277 20.1619 36.5357 19.9459 35.8157 19.5139C35.1077 19.0699 34.5437 18.4579 34.1237 17.6779C33.7157 16.8859 33.5117 15.9919 33.5117 14.9959ZM41.6297 15.0319C41.6297 14.3479 41.4857 13.7539 41.1977 13.2499C40.9217 12.7459 40.5557 12.3619 40.0997 12.0979C39.6437 11.8339 39.1517 11.7019 38.6237 11.7019C38.0957 11.7019 37.6037 11.8339 37.1477 12.0979C36.6917 12.3499 36.3197 12.7279 36.0317 13.2319C35.7557 13.7239 35.6177 14.3119 35.6177 14.9959C35.6177 15.6799 35.7557 16.2799 36.0317 16.7959C36.3197 17.3119 36.6917 17.7079 37.1477 17.9839C37.6157 18.2479 38.1077 18.3799 38.6237 18.3799C39.1517 18.3799 39.6437 18.2479 40.0997 17.9839C40.5557 17.7199 40.9217 17.3359 41.1977 16.8319C41.4857 16.3159 41.6297 15.7159 41.6297 15.0319ZM45.7109 14.9959C45.7109 13.9999 45.9149 13.1179 46.3229 12.3499C46.7429 11.5819 47.3069 10.9879 48.0149 10.5679C48.7349 10.1359 49.5269 9.91994 50.3909 9.91994C51.1709 9.91994 51.8489 10.0759 52.4249 10.3879C53.0129 10.6879 53.4809 11.0659 53.8289 11.5219V10.0819H55.8989V19.9999H53.8289V18.5239C53.4809 18.9919 53.0069 19.3819 52.4069 19.6939C51.8069 20.0059 51.1229 20.1619 50.3549 20.1619C49.5029 20.1619 48.7229 19.9459 48.0149 19.5139C47.3069 19.0699 46.7429 18.4579 46.3229 17.6779C45.9149 16.8859 45.7109 15.9919 45.7109 14.9959ZM53.8289 15.0319C53.8289 14.3479 53.6849 13.7539 53.3969 13.2499C53.1209 12.7459 52.7549 12.3619 52.2989 12.0979C51.8429 11.8339 51.3509 11.7019 50.8229 11.7019C50.2949 11.7019 49.8029 11.8339 49.3469 12.0979C48.8909 12.3499 48.5189 12.7279 48.2309 13.2319C47.9549 13.7239 47.8169 14.3119 47.8169 14.9959C47.8169 15.6799 47.9549 16.2799 48.2309 16.7959C48.5189 17.3119 48.8909 17.7079 49.3469 17.9839C49.8149 18.2479 50.3069 18.3799 50.8229 18.3799C51.3509 18.3799 51.8429 18.2479 52.2989 17.9839C52.7549 17.7199 53.1209 17.3359 53.3969 16.8319C53.6849 16.3159 53.8289 15.7159 53.8289 15.0319ZM68.2739 9.91994C69.0539 9.91994 69.7499 10.0819 70.3619 10.4059C70.9859 10.7299 71.4719 11.2099 71.8199 11.8459C72.1679 12.4819 72.3419 13.2499 72.3419 14.1499V19.9999H70.3079V14.4559C70.3079 13.5679 70.0859 12.8899 69.6419 12.4219C69.1979 11.9419 68.5919 11.7019 67.8239 11.7019C67.0559 11.7019 66.4439 11.9419 65.9879 12.4219C65.5439 12.8899 65.3219 13.5679 65.3219 14.4559V19.9999H63.2699V10.0819H65.3219V11.2159C65.6579 10.8079 66.0839 10.4899 66.5999 10.2619C67.1279 10.0339 67.6859 9.91994 68.2739 9.91994ZM79.2614 20.1619C78.3254 20.1619 77.4794 19.9519 76.7234 19.5319C75.9674 19.0999 75.3734 18.4999 74.9414 17.7319C74.5094 16.9519 74.2934 16.0519 74.2934 15.0319C74.2934 14.0239 74.5154 13.1299 74.9594 12.3499C75.4034 11.5699 76.0094 10.9699 76.7774 10.5499C77.5454 10.1299 78.4034 9.91994 79.3514 9.91994C80.2994 9.91994 81.1574 10.1299 81.9254 10.5499C82.6934 10.9699 83.2994 11.5699 83.7434 12.3499C84.1874 13.1299 84.4094 14.0239 84.4094 15.0319C84.4094 16.0399 84.1814 16.9339 83.7254 17.7139C83.2694 18.4939 82.6454 19.0999 81.8534 19.5319C81.0734 19.9519 80.2094 20.1619 79.2614 20.1619ZM79.2614 18.3799C79.7894 18.3799 80.2814 18.2539 80.7374 18.0019C81.2054 17.7499 81.5834 17.3719 81.8714 16.8679C82.1594 16.3639 82.3034 15.7519 82.3034 15.0319C82.3034 14.3119 82.1654 13.7059 81.8894 13.2139C81.6134 12.7099 81.2474 12.3319 80.7914 12.0799C80.3354 11.8279 79.8434 11.7019 79.3154 11.7019C78.7874 11.7019 78.2954 11.8279 77.8394 12.0799C77.3954 12.3319 77.0414 12.7099 76.7774 13.2139C76.5134 13.7059 76.3814 14.3119 76.3814 15.0319C76.3814 16.0999 76.6514 16.9279 77.1914 17.5159C77.7434 18.0919 78.4334 18.3799 79.2614 18.3799ZM88.8319 11.7559V17.2459C88.8319 17.6179 88.9159 17.8879 89.0839 18.0559C89.2639 18.2119 89.5639 18.2899 89.9839 18.2899H91.2439V19.9999H89.6239C88.6999 19.9999 87.9919 19.7839 87.4999 19.3519C87.0079 18.9199 86.7619 18.2179 86.7619 17.2459V11.7559H85.5919V10.0819H86.7619V7.61594H88.8319V10.0819H91.2439V11.7559H88.8319ZM102.117 10.0819V19.9999H100.065V18.8299C99.7412 19.2379 99.3152 19.5619 98.7872 19.8019C98.2712 20.0299 97.7192 20.1439 97.1312 20.1439C96.3512 20.1439 95.6492 19.9819 95.0252 19.6579C94.4132 19.3339 93.9272 18.8539 93.5672 18.2179C93.2192 17.5819 93.0452 16.8139 93.0452 15.9139V10.0819H95.0792V15.6079C95.0792 16.4959 95.3012 17.1799 95.7452 17.6599C96.1892 18.1279 96.7952 18.3619 97.5632 18.3619C98.3312 18.3619 98.9372 18.1279 99.3812 17.6599C99.8372 17.1799 100.065 16.4959 100.065 15.6079V10.0819H102.117ZM106.877 11.5219C107.177 11.0179 107.573 10.6279 108.065 10.3519C108.569 10.0639 109.163 9.91994 109.847 9.91994V12.0439H109.325C108.521 12.0439 107.909 12.2479 107.489 12.6559C107.081 13.0639 106.877 13.7719 106.877 14.7799V19.9999H104.825V10.0819H106.877V11.5219ZM116.737 9.91994C117.517 9.91994 118.213 10.0819 118.825 10.4059C119.449 10.7299 119.935 11.2099 120.283 11.8459C120.631 12.4819 120.805 13.2499 120.805 14.1499V19.9999H118.771V14.4559C118.771 13.5679 118.549 12.8899 118.105 12.4219C117.661 11.9419 117.055 11.7019 116.287 11.7019C115.519 11.7019 114.907 11.9419 114.451 12.4219C114.007 12.8899 113.785 13.5679 113.785 14.4559V19.9999H111.733V10.0819H113.785V11.2159C114.121 10.8079 114.547 10.4899 115.063 10.2619C115.591 10.0339 116.149 9.91994 116.737 9.91994ZM122.738 14.9959C122.738 13.9999 122.942 13.1179 123.35 12.3499C123.77 11.5819 124.334 10.9879 125.042 10.5679C125.762 10.1359 126.554 9.91994 127.418 9.91994C128.198 9.91994 128.876 10.0759 129.452 10.3879C130.04 10.6879 130.508 11.0659 130.856 11.5219V10.0819H132.926V19.9999H130.856V18.5239C130.508 18.9919 130.034 19.3819 129.434 19.6939C128.834 20.0059 128.15 20.1619 127.382 20.1619C126.53 20.1619 125.75 19.9459 125.042 19.5139C124.334 19.0699 123.77 18.4579 123.35 17.6779C122.942 16.8859 122.738 15.9919 122.738 14.9959ZM130.856 15.0319C130.856 14.3479 130.712 13.7539 130.424 13.2499C130.148 12.7459 129.782 12.3619 129.326 12.0979C128.87 11.8339 128.378 11.7019 127.85 11.7019C127.322 11.7019 126.83 11.8339 126.374 12.0979C125.918 12.3499 125.546 12.7279 125.258 13.2319C124.982 13.7239 124.844 14.3119 124.844 14.9959C124.844 15.6799 124.982 16.2799 125.258 16.7959C125.546 17.3119 125.918 17.7079 126.374 17.9839C126.842 18.2479 127.334 18.3799 127.85 18.3799C128.378 18.3799 128.87 18.2479 129.326 17.9839C129.782 17.7199 130.148 17.3359 130.424 16.8319C130.712 16.3159 130.856 15.7159 130.856 15.0319Z" fill="#47585B"/>
<circle cx="4" cy="14.9999" r="4" fill="#FFBA08"/>
</svg>
